<?xml version="1.0" encoding="utf-8"?>
<!-- Generator: Adobe Illustrator 15.0.0, SVG Export Plug-In . SVG Version: 6.00 Build 0)  -->
<!DOCTYPE svg PUBLIC "-//W3C//DTD SVG 1.1//EN" "http://www.w3.org/Graphics/SVG/1.1/DTD/svg11.dtd">
<svg version="1.1" id="Layer_1" xmlns="http://www.w3.org/2000/svg" xmlns:xlink="http://www.w3.org/1999/xlink" x="0px" y="0px"
	 width="512px" height="512px" viewBox="0 0 512 512" enable-background="new 0 0 512 512" xml:space="preserve">
<radialGradient id="path5268_1_" cx="959.6992" cy="-164.5347" r="471.269" gradientTransform="matrix(0.9847 0.0437 0.0281 -0.6334 -685.7573 107.2397)" gradientUnits="userSpaceOnUse">
	<stop  offset="0" style="stop-color:#8D8D8D"/>
	<stop  offset="1" style="stop-color:#4D4D4D"/>
</radialGradient>
<path id="path5268" fill="url(#path5268_1_)" d="M254.937,83.847c-52.241,0.474-103.416,3.396-144.294,6.489
	c-43.033,3.88-72.366,8.038-72.366,8.038c-10.984,0-19.817,8.832-19.817,19.815c0,0-13.929,31.764-14.058,125.911
	c-0.005,3.037,0.004,6.125,0.028,9.293c0.764,94.807,14.03,135.233,14.03,135.233c0,10.985,8.833,19.846,19.817,19.846
	c0,0,29.333,4.158,72.366,8.04c40.879,3.088,92.053,5.982,144.294,6.456c52.188-0.474,103.318-3.343,144.178-6.425
	c43.09-3.883,72.482-8.071,72.482-8.071c10.985,0,19.817-8.86,19.817-19.846c0,0,13.266-40.426,14.027-135.233
	c0.028-3.168,0.035-6.257,0.03-9.293c-0.13-94.147-14.058-125.911-14.058-125.911c0-10.984-8.832-19.815-19.817-19.815
	c0,0-29.393-4.186-72.482-8.067C358.255,87.216,307.125,84.32,254.937,83.847z"/>
<linearGradient id="path3648_1_" gradientUnits="userSpaceOnUse" x1="370.3994" y1="79.9365" x2="370.3994" y2="-260.0649" gradientTransform="matrix(0.4921 0 0 -0.4921 78.4951 163.1173)">
	<stop  offset="0" style="stop-color:#EEEEEC"/>
	<stop  offset="1" style="stop-color:#EEEEEC"/>
</linearGradient>
<path id="path3648" sodipodi:nodetypes="cccssczcssscc" fill="url(#path3648_1_)" d="M260.769,115.647
	c-45.658,0.413-90.391,2.973-126.119,5.676c-37.609,3.39-63.234,7.029-63.234,7.029c-9.601,0-17.33,7.702-17.33,17.302
	c0,0-12.16,27.777-12.273,110.057c-0.003,2.655,0.005,5.346,0.027,8.112c10.1,37.007,22.433-8.504,224.12-55.609
	c201.875-47.147,212.428,153.474,213.739,55.609c0.021-2.767,0.031-5.457,0.028-8.112c-0.114-82.28-12.277-110.057-12.277-110.057
	c0-9.6-7.729-17.302-17.326-17.302c0,0-25.688-3.664-63.344-7.056C351.065,118.596,306.378,116.06,260.769,115.647z"/>
<path id="rect3616" opacity="0.51" fill="#FFFFFF" enable-background="new    " d="M258.735,110.035
	c-47.963,0.41-94.946,2.945-132.478,5.629c-39.509,3.364-66.439,6.974-66.439,6.974c-10.085,0-18.194,7.662-18.194,17.193
	c0,0-12.788,27.558-12.906,109.243c-0.004,2.634,0.004,5.313,0.027,8.065c0.699,82.252,12.879,117.333,12.879,117.333
	c0,9.527,8.109,17.217,18.194,17.217c0,0,26.931,3.607,66.439,6.97c37.531,2.681,84.515,5.197,132.478,5.604
	c47.913-0.407,94.857-2.898,132.369-5.579c39.56-3.362,66.546-6.995,66.546-6.995c10.089,0,18.192-7.689,18.192-17.217
	c0,0,12.181-35.081,12.884-117.333c0.022-2.752,0.03-5.431,0.028-8.065c-0.123-81.686-12.912-109.243-12.912-109.243
	c0-9.531-8.104-17.193-18.192-17.193c0,0-26.986-3.631-66.546-7C353.593,112.957,306.648,110.445,258.735,110.035z"/>
</svg>
